<svg width="20" height="21" viewBox="0 0 20 21" fill="none" xmlns="http://www.w3.org/2000/svg">
<g id="Icon">
<path id="truck" d="M19.5044 13.5625C19.6502 13.5625 19.7648 13.6081 19.8481 13.6992C19.9523 13.7721 20.0044 13.8724 20.0044 14V14.4375C20.0044 14.5651 19.9523 14.6745 19.8481 14.7656C19.7648 14.8385 19.6502 14.875 19.5044 14.875H18.0044C18.0044 15.6042 17.7127 16.224 17.1294 16.7344C16.5461 17.2448 15.8377 17.5 15.0044 17.5C14.1711 17.5 13.4627 17.2448 12.8794 16.7344C12.2961 16.224 12.0044 15.6042 12.0044 14.875H8.00439C8.00439 15.6042 7.71273 16.224 7.12939 16.7344C6.54606 17.2448 5.83773 17.5 5.00439 17.5C4.17106 17.5 3.46273 17.2448 2.87939 16.7344C2.29606 16.224 2.00439 15.6042 2.00439 14.875H1.75439C1.27523 14.875 0.858561 14.7292 0.504395 14.4375C0.171061 14.1276 0.00439453 13.763 0.00439453 13.3438V5.03125C0.00439453 4.61198 0.171061 4.25651 0.504395 3.96484C0.858561 3.65495 1.27523 3.5 1.75439 3.5H11.2544C11.7336 3.5 12.1398 3.65495 12.4731 3.96484C12.8273 4.25651 13.0044 4.61198 13.0044 5.03125V6.125H14.1294C14.7544 6.125 15.2856 6.31641 15.7231 6.69922L18.3481 8.99609C18.7856 9.37891 19.0044 9.84375 19.0044 10.3906V13.5625H19.5044ZM3.94189 15.8047C4.23356 16.0599 4.58773 16.1875 5.00439 16.1875C5.42106 16.1875 5.77523 16.0599 6.06689 15.8047C6.35856 15.5495 6.50439 15.2396 6.50439 14.875C6.50439 14.5104 6.35856 14.2005 6.06689 13.9453C5.77523 13.6901 5.42106 13.5625 5.00439 13.5625C4.58773 13.5625 4.23356 13.6901 3.94189 13.9453C3.65023 14.2005 3.50439 14.5104 3.50439 14.875C3.50439 15.2396 3.65023 15.5495 3.94189 15.8047ZM11.5044 13.5625V5.03125C11.5044 4.88542 11.4211 4.8125 11.2544 4.8125H1.75439C1.58773 4.8125 1.50439 4.88542 1.50439 5.03125V13.3438C1.50439 13.4896 1.58773 13.5625 1.75439 13.5625H2.41064C2.68148 13.1615 3.04606 12.8424 3.50439 12.6055C3.96273 12.3685 4.46273 12.25 5.00439 12.25C5.54606 12.25 6.04606 12.3685 6.50439 12.6055C6.96273 12.8424 7.32731 13.1615 7.59814 13.5625H11.5044ZM13.0044 7.4375V9.625H16.9419L14.6606 7.62891C14.5148 7.5013 14.3377 7.4375 14.1294 7.4375H13.0044ZM13.9419 15.8047C14.2336 16.0599 14.5877 16.1875 15.0044 16.1875C15.4211 16.1875 15.7752 16.0599 16.0669 15.8047C16.3586 15.5495 16.5044 15.2396 16.5044 14.875C16.5044 14.5104 16.3586 14.2005 16.0669 13.9453C15.7752 13.6901 15.4211 13.5625 15.0044 13.5625C14.5877 13.5625 14.2336 13.6901 13.9419 13.9453C13.6502 14.2005 13.5044 14.5104 13.5044 14.875C13.5044 15.2396 13.6502 15.5495 13.9419 15.8047ZM17.5044 13.4258V10.9375H13.0044V12.9336C13.5877 12.4779 14.2544 12.25 15.0044 12.25C16.0669 12.25 16.9002 12.6419 17.5044 13.4258Z" fill="#DBA514"/>
</g>
</svg>
