<svg width="60" height="60" viewBox="0 0 60 60" fill="none" xmlns="http://www.w3.org/2000/svg">
<path id="categories" fill-rule="evenodd" clip-rule="evenodd" d="M18.2717 26.1237H7.8884C3.54047 26.1237 0 22.5881 0 18.2463V7.87742C0 3.53554 3.54047 0 7.8884 0H18.2717C22.6196 0 26.1601 3.53554 26.1601 7.87742V18.2463C26.1601 22.5881 22.6196 26.1237 18.2717 26.1237ZM7.8884 4.1558C5.83835 4.1558 4.1616 5.82001 4.1616 7.87742V18.2463C4.1616 20.2935 5.82812 21.9679 7.8884 21.9679H18.2717C20.3217 21.9679 21.9985 20.3037 21.9985 18.2463V7.87742C21.9985 5.83022 20.332 4.1558 18.2717 4.1558H7.8884ZM18.2717 57.8607H7.8884C3.54047 57.8607 0 54.325 0 49.9826V39.6138C0 35.2719 3.54047 31.7363 7.8884 31.7363H18.2717C22.6196 31.7363 26.1601 35.2719 26.1601 39.6138V49.9833C26.1601 54.3252 22.6196 57.8607 18.2717 57.8607ZM7.8884 35.8921C5.83835 35.8921 4.1616 37.5563 4.1616 39.6138V49.9826C4.1616 52.0298 5.82812 53.7042 7.8884 53.7042H18.2717C20.3217 53.7042 21.9985 52.04 21.9985 49.9826V39.6138C21.9985 37.5665 20.332 35.8921 18.2717 35.8921H7.8884ZM39.5881 26.1237H49.9714C54.3193 26.1237 57.8598 22.5881 57.8598 18.2463V7.87742C57.8598 3.53554 54.3193 0 49.9714 0H39.5881C35.2402 0 31.6997 3.53554 31.6997 7.87742V18.2463C31.6997 22.5881 35.2402 26.1237 39.5881 26.1237ZM35.8613 7.87742C35.8613 5.82001 37.5381 4.1558 39.5881 4.1558H49.9714C52.0317 4.1558 53.6982 5.83022 53.6982 7.87742V18.2463C53.6982 20.3037 52.0215 21.9679 49.9714 21.9679H39.5881C37.5278 21.9679 35.8613 20.2935 35.8613 18.2463V7.87742ZM44.7746 60C42.7563 60 40.7372 59.2349 39.1948 57.6946L31.8554 50.3653C28.7806 47.2948 28.7806 42.2918 31.8554 39.2213L39.195 31.892C42.2698 28.8215 47.2797 28.8215 50.3545 31.892L57.694 39.2213C60.7688 42.2918 60.7688 47.2948 57.694 50.3653L50.3545 57.6946C48.812 59.2349 46.7937 60 44.7746 60ZM42.1453 34.8377L34.8058 42.1671H34.8056C33.3462 43.6151 33.3462 45.9818 34.8064 47.4392L42.1459 54.7685C43.6054 56.2258 45.966 56.2258 47.4254 54.7685L54.7649 47.4392C56.2142 45.9817 56.2142 43.6244 54.7649 42.1671L47.4254 34.8377C46.7003 34.1144 45.7378 33.7525 44.7853 33.7525C43.8329 33.7525 42.8704 34.1137 42.1453 34.8377Z" fill="#AD8775"/>
</svg>
