<svg width="18" height="21" viewBox="0 0 18 21" fill="none" xmlns="http://www.w3.org/2000/svg">
<path id="remove" d="M17.6786 3C17.8929 3 18 3.10417 18 3.3125V3.9375C18 4.14583 17.8929 4.25 17.6786 4.25H16.9152L15.5893 18.7812C15.5357 19.25 15.3214 19.6536 14.9464 19.9922C14.5714 20.3307 14.1429 20.5 13.6607 20.5H4.33929C3.85714 20.5 3.42857 20.3307 3.05357 19.9922C2.67857 19.6536 2.46429 19.25 2.41071 18.7812L1.08482 4.25H0.321429C0.107143 4.25 0 4.14583 0 3.9375V3.3125C0 3.10417 0.107143 3 0.321429 3H4.5L5.86607 1.24219C6.02679 1.03385 6.25446 0.864583 6.54911 0.734375C6.84375 0.578125 7.125 0.5 7.39286 0.5H10.6071C10.875 0.5 11.1562 0.578125 11.4509 0.734375C11.7455 0.864583 11.9732 1.03385 12.1339 1.24219L13.5 3H17.6786ZM6.87054 1.98438L6.10714 3H11.8929L11.1295 1.98438C10.9955 1.82812 10.8214 1.75 10.6071 1.75H7.39286C7.17857 1.75 7.00446 1.82812 6.87054 1.98438ZM14.3036 18.6641L15.6295 4.25H2.37054L3.69643 18.6641C3.69643 18.8203 3.76339 18.9505 3.89732 19.0547C4.03125 19.1849 4.17857 19.25 4.33929 19.25H13.6607C13.7679 19.25 13.8616 19.224 13.942 19.1719C14.0491 19.1198 14.1295 19.0417 14.183 18.9375C14.2634 18.8594 14.3036 18.7682 14.3036 18.6641Z" fill="#AD8775"/>
</svg>
