<svg width="20" height="19" viewBox="0 0 20 19" fill="none" xmlns="http://www.w3.org/2000/svg">
<path id="Shape (Stroke)" fill-rule="evenodd" clip-rule="evenodd" d="M10.5086 2.16551C11.5511 1.09913 12.9653 0.5 14.4399 0.5C15.9145 0.5 17.3288 1.09917 18.3712 2.16562C19.4141 3.23155 20 4.6775 20 6.18523C20 7.69301 19.4141 9.13901 18.3711 10.2049L10.4417 18.3128C10.1976 18.5624 9.8019 18.5624 9.55782 18.3128L1.62838 10.2049C-0.542793 7.98492 -0.542793 4.38554 1.62838 2.16551C3.79955 -0.0545166 7.31972 -0.0545167 9.49089 2.16551L9.99976 2.68584L10.5086 2.16551ZM14.4399 1.77813C13.2969 1.77813 12.2007 2.24255 11.3926 3.06918L10.4417 4.0415C10.3245 4.16134 10.1655 4.22867 9.99976 4.22867C9.834 4.22867 9.67503 4.16134 9.55782 4.0415L8.607 3.06929C6.92399 1.3484 4.19528 1.3484 2.51226 3.06929C0.829246 4.79017 0.829246 7.58029 2.51226 9.30118L9.99976 16.9572L17.4873 9.30118C18.2957 8.47494 18.75 7.35398 18.75 6.18523C18.75 5.01648 18.2958 3.89563 17.4874 3.06939C16.6793 2.24277 15.5829 1.77813 14.4399 1.77813Z" fill="#AD8775"/>
</svg>
