<svg width="72" height="60" viewBox="0 0 72 60" fill="none" xmlns="http://www.w3.org/2000/svg">
<g id="Logo">
<g id="una">
<path d="M6.79266 37C4.65314 37 2.98615 36.4429 1.79169 35.3287C0.597229 34.2144 0 32.6021 0 30.4916V23H4.33155V30.236C4.33155 31.0356 4.52844 31.691 4.92222 32.2022C5.316 32.7135 5.93948 32.9691 6.79266 32.9691H14.6682C15.5214 32.9691 16.1449 32.7135 16.5387 32.2022C16.9324 31.691 17.1293 31.0356 17.1293 30.236V23H21.4609V30.4916C21.4609 32.6021 20.8636 34.2144 19.6692 35.3287C18.4747 36.4429 16.8077 37 14.6682 37H6.79266Z" fill="#32324D"/>
<path d="M42.2148 23H46.4676V36.764H42.2148L29.0036 28.1517V36.764H24.7508V23H29.0036L42.2148 31.632V23Z" fill="#32324D"/>
<path d="M67.6094 36.764L67.0384 34.5815H53.9059L53.3349 36.764H48.964L52.6065 23H68.3576L72 36.764H67.6094ZM54.8904 30.7472H66.0343L65.0105 26.7949H55.9142L54.8904 30.7472Z" fill="#32324D"/>
</g>
</g>
</svg>
