<svg width="18" height="21" viewBox="0 0 18 21" fill="none" xmlns="http://www.w3.org/2000/svg">
<path id="remove" d="M17.6786 2.70703C17.8929 2.70703 18 2.8112 18 3.01953V3.64453C18 3.85286 17.8929 3.95703 17.6786 3.95703H16.9152L15.5893 18.4883C15.5357 18.957 15.3214 19.3607 14.9464 19.6992C14.5714 20.0378 14.1429 20.207 13.6607 20.207H4.33929C3.85714 20.207 3.42857 20.0378 3.05357 19.6992C2.67857 19.3607 2.46429 18.957 2.41071 18.4883L1.08482 3.95703H0.321429C0.107143 3.95703 0 3.85286 0 3.64453V3.01953C0 2.8112 0.107143 2.70703 0.321429 2.70703H4.5L5.86607 0.949219C6.02679 0.740885 6.25446 0.571615 6.54911 0.441406C6.84375 0.285156 7.125 0.207031 7.39286 0.207031H10.6071C10.875 0.207031 11.1562 0.285156 11.4509 0.441406C11.7455 0.571615 11.9732 0.740885 12.1339 0.949219L13.5 2.70703H17.6786ZM6.87054 1.69141L6.10714 2.70703H11.8929L11.1295 1.69141C10.9955 1.53516 10.8214 1.45703 10.6071 1.45703H7.39286C7.17857 1.45703 7.00446 1.53516 6.87054 1.69141ZM14.3036 18.3711L15.6295 3.95703H2.37054L3.69643 18.3711C3.69643 18.5273 3.76339 18.6576 3.89732 18.7617C4.03125 18.8919 4.17857 18.957 4.33929 18.957H13.6607C13.7679 18.957 13.8616 18.931 13.942 18.8789C14.0491 18.8268 14.1295 18.7487 14.183 18.6445C14.2634 18.5664 14.3036 18.4753 14.3036 18.3711Z" fill="#AD8775"/>
</svg>
