<svg width="20" height="20" viewBox="0 0 20 20" fill="none" xmlns="http://www.w3.org/2000/svg">
<path id="search" d="M19.8244 18.8098C20.0585 19.0179 20.0585 19.239 19.8244 19.4732L19.4732 19.8244C19.239 20.0585 19.0179 20.0585 18.8098 19.8244L13.7756 14.8293C13.6715 14.7252 13.6195 14.6081 13.6195 14.478V14.0878C12.0585 15.5187 10.2244 16.2341 8.11707 16.2341C5.87967 16.2341 3.96748 15.4406 2.38049 13.8537C0.793496 12.2667 0 10.3545 0 8.11707C0 5.87967 0.793496 3.96748 2.38049 2.38049C3.96748 0.793496 5.87967 0 8.11707 0C10.3545 0 12.2667 0.793496 13.8537 2.38049C15.4406 3.96748 16.2341 5.87967 16.2341 8.11707C16.2341 10.2244 15.5187 12.0585 14.0878 13.6195H14.478C14.6081 13.6195 14.7252 13.6715 14.8293 13.7756L19.8244 18.8098ZM3.23902 12.9951C4.59187 14.322 6.21789 14.9854 8.11707 14.9854C10.0163 14.9854 11.6293 14.322 12.9561 12.9951C14.3089 11.6423 14.9854 10.0163 14.9854 8.11707C14.9854 6.21789 14.3089 4.60488 12.9561 3.27805C11.6293 1.9252 10.0163 1.24878 8.11707 1.24878C6.21789 1.24878 4.59187 1.9252 3.23902 3.27805C1.9122 4.60488 1.24878 6.21789 1.24878 8.11707C1.24878 10.0163 1.9122 11.6423 3.23902 12.9951Z" fill="#AD8775"/>
</svg>
