<svg width="24" height="24" viewBox="0 0 24 24" fill="none" xmlns="http://www.w3.org/2000/svg">
<g id="Icon" clip-path="url(#clip0_14_1931)">
<path id="Vector" d="M12.0039 24C18.6313 24 24.0039 18.6274 24.0039 12C24.0039 5.37258 18.6313 0 12.0039 0C5.37649 0 0.00390625 5.37258 0.00390625 12C0.00390625 18.6274 5.37649 24 12.0039 24Z" fill="#2DAAE1"/>
<path id="Vector_2" d="M19.6979 7.22565C19.1319 7.47681 18.524 7.6466 17.8848 7.72292C18.5372 7.33228 19.0369 6.71326 19.2729 5.97652C18.6532 6.34457 17.975 6.60368 17.2678 6.7426C16.6922 6.12911 15.8715 5.74609 14.9635 5.74609C13.2206 5.74609 11.8072 7.15899 11.8072 8.90286C11.8072 9.14995 11.835 9.39101 11.8885 9.62245C9.26484 9.49059 6.9388 8.23384 5.38186 6.32421C5.11 6.79059 4.95439 7.33285 4.95439 7.91141C4.95439 9.00648 5.51177 9.97267 6.35869 10.5386C5.85732 10.5231 5.36696 10.3878 4.9286 10.144V10.1839C4.9286 11.7135 6.01658 12.9889 7.46081 13.279C7.19551 13.3517 6.91708 13.3897 6.62904 13.3897C6.42539 13.3897 6.22781 13.3704 6.03479 13.3341C6.43651 14.5878 7.60236 15.5004 8.98336 15.5262C7.90295 16.3732 6.5416 16.878 5.06302 16.878C4.80835 16.878 4.55666 16.8628 4.30957 16.833C5.70682 17.729 7.36583 18.252 9.14863 18.252C14.9549 18.252 18.1304 13.4418 18.1304 9.27027C18.1304 9.13333 18.1274 8.99739 18.1208 8.86195C18.7394 8.41446 19.2735 7.86037 19.6979 7.22565Z" fill="white"/>
</g>
<defs>
<clipPath id="clip0_14_1931">
<rect width="24" height="24" fill="white"/>
</clipPath>
</defs>
</svg>
