<svg width="18" height="20" viewBox="0 0 18 20" fill="none" xmlns="http://www.w3.org/2000/svg">
<path id="user" d="M12.6161 11.25C14.0893 11.25 15.3482 11.7708 16.3929 12.8125C17.4643 13.8281 18 15.0521 18 16.4844V18.125C18 18.6458 17.8125 19.0885 17.4375 19.4531C17.0625 19.8177 16.6071 20 16.0714 20H1.92857C1.39286 20 0.9375 19.8177 0.5625 19.4531C0.1875 19.0885 0 18.6458 0 18.125V16.4844C0 15.0521 0.522321 13.8281 1.56696 12.8125C2.63839 11.7708 3.91071 11.25 5.38393 11.25C5.73214 11.25 6.24107 11.3542 6.91071 11.5625C7.60714 11.7708 8.30357 11.875 9 11.875C9.69643 11.875 10.3929 11.7708 11.0893 11.5625C11.7857 11.3542 12.2946 11.25 12.6161 11.25ZM16.7143 18.125V16.4844C16.7143 15.3906 16.3125 14.4531 15.5089 13.6719C14.7054 12.8906 13.7411 12.5 12.6161 12.5C12.4554 12.5 12 12.6042 11.25 12.8125C10.5268 13.0208 9.77679 13.125 9 13.125C8.22322 13.125 7.45982 13.0208 6.70982 12.8125C5.98661 12.6042 5.54464 12.5 5.38393 12.5C4.25893 12.5 3.29464 12.8906 2.49107 13.6719C1.6875 14.4531 1.28571 15.3906 1.28571 16.4844V18.125C1.28571 18.3073 1.33929 18.4505 1.44643 18.5547C1.58036 18.6849 1.74107 18.75 1.92857 18.75H16.0714C16.2589 18.75 16.4062 18.6849 16.5134 18.5547C16.6473 18.4505 16.7143 18.3073 16.7143 18.125ZM12.6161 8.55469C11.625 9.51823 10.4196 10 9 10C7.58036 10 6.36161 9.51823 5.34375 8.55469C4.35268 7.5651 3.85714 6.38021 3.85714 5C3.85714 3.61979 4.35268 2.44792 5.34375 1.48438C6.36161 0.494792 7.58036 0 9 0C10.4196 0 11.625 0.494792 12.6161 1.48438C13.6339 2.44792 14.1429 3.61979 14.1429 5C14.1429 6.38021 13.6339 7.5651 12.6161 8.55469ZM11.7321 2.34375C10.9821 1.61458 10.0714 1.25 9 1.25C7.92857 1.25 7.01786 1.61458 6.26786 2.34375C5.51786 3.07292 5.14286 3.95833 5.14286 5C5.14286 6.04167 5.51786 6.92708 6.26786 7.65625C7.01786 8.38542 7.92857 8.75 9 8.75C10.0714 8.75 10.9821 8.38542 11.7321 7.65625C12.4821 6.92708 12.8571 6.04167 12.8571 5C12.8571 3.95833 12.4821 3.07292 11.7321 2.34375Z" fill="#AD8775"/>
</svg>
